<svg width="298" height="348" viewBox="0 0 298 348" fill="none" xmlns="http://www.w3.org/2000/svg">
<path fill-rule="evenodd" clip-rule="evenodd" d="M38.3171 142.164C45.9936 106.11 90.1021 78.1154 143.222 77.6755C193.005 77.2632 234.628 101.185 245.681 133.768C246.524 134.149 247.357 134.549 248.179 134.967C243.367 97.1198 198.305 67.8362 143.27 68.292C85.207 68.7728 37.9108 102.174 37.1902 143.038C37.5624 142.743 37.9381 142.451 38.3171 142.164Z" fill="#323232"/>
<path fill-rule="evenodd" clip-rule="evenodd" d="M1.94914 97.9532C13.8215 50.7659 75.4442 14.3323 149.492 13.7191C218.931 13.1441 277.123 44.2519 293.497 86.8801C294.801 87.3982 296.088 87.9495 297.357 88.5331C289.587 38.8263 226.47 0.59072 149.556 1.22765C68.3778 1.89988 2.13318 45.6226 5.29941e-05 99.3688C0.642603 98.8877 1.29234 98.4158 1.94914 97.9532Z" fill="#323232"/>
<path fill-rule="evenodd" clip-rule="evenodd" d="M227.474 221.737C227.474 241.144 220.454 258.91 208.813 272.636L165.489 338.847C157.594 350.913 139.913 350.913 132.018 338.847L88.802 272.801C77.0775 259.053 70 241.222 70 221.737C70 178.252 105.252 143 148.737 143C192.223 143 227.474 178.252 227.474 221.737ZM148.737 335.729C156.322 335.729 162.47 329.581 162.47 321.996C162.47 314.411 156.322 308.263 148.737 308.263C141.152 308.263 135.004 314.411 135.004 321.996C135.004 329.581 141.152 335.729 148.737 335.729Z" fill="#323232"/>
</svg>
