<svg width="144" height="169" viewBox="0 0 144 169" fill="none" xmlns="http://www.w3.org/2000/svg">
<g clip-path="url(#clip0_620_6460)">
<path d="M102 90H114V102H102V90ZM102 66H114V78H102V66ZM102 42H114V54H102V42ZM82.4399 42L89.9999 47.04V42H82.4399Z" fill="#323232"/>
<path d="M60 18V27.06L72 35.04V30H126V114H102V126H138V18H60Z" fill="#323232"/>
<path d="M49.02 34.2L90 61.5V126H6V62.8799L49.02 34.2ZM60 114H78V66.96L49.02 48.54L18 68.28V114H36V78H60V114Z" fill="#323232"/>
</g>
<path d="M56.716 138.24V162H51.856L44.188 150.552C43.252 149.112 42.028 147.06 41.452 146.124L41.236 146.232C41.38 146.772 41.416 148.608 41.416 150.516L41.452 162H36.52V138.24H41.056L49.084 150.264C50.308 152.1 51.388 154.044 51.784 154.764L52 154.656C51.892 154.008 51.784 152.208 51.784 150.228L51.748 138.24H56.716ZM76.7067 137.988C81.9267 137.988 85.2027 140.868 85.2027 145.044C85.2027 147.96 83.0787 150.048 80.4867 150.048V150.12C83.1147 150.12 86.0307 152.244 86.0307 155.628C86.0307 159.48 82.6107 162.252 76.8147 162.252C69.3987 162.252 67.4187 157.464 67.4187 157.464L71.1987 154.98C71.1987 154.98 73.0707 157.86 76.6347 157.86C79.2627 157.86 80.8467 156.744 80.8467 154.98C80.8827 153.324 79.5867 152.244 76.6707 152.136L74.1867 152.1V148.428L75.8787 148.392C78.4707 148.284 80.0547 147.312 80.0547 145.584C80.0547 143.712 78.6507 142.416 76.5627 142.416C74.5107 142.416 73.3227 143.46 73.3227 144.792C73.3227 145.116 73.3587 145.404 73.4307 145.584L68.4987 146.376C68.4987 146.304 68.2827 145.512 68.2827 144.468C68.2827 140.688 71.6307 137.988 76.7067 137.988ZM99.7863 146.916C104.214 146.916 107.418 149.94 107.418 154.44C107.418 159.12 103.926 162.252 98.7783 162.252C92.8743 162.252 88.8423 157.824 88.8423 150.372C88.8423 142.884 93.0903 137.988 99.2823 137.988C103.134 137.988 105.51 139.536 106.914 141.336L103.674 144.324C103.17 143.604 101.73 142.416 99.4983 142.416C95.9703 142.416 93.7023 145.44 93.7023 150.012V150.3L93.8463 150.336C94.3143 148.968 96.0423 146.916 99.7863 146.916ZM98.7063 157.896C101.082 157.896 102.702 156.384 102.702 154.224C102.702 152.136 101.082 150.768 98.7063 150.768C96.0423 150.768 94.3143 152.316 94.2783 154.692C94.9623 156.744 96.3303 157.896 98.7063 157.896Z" fill="#12130F" fill-opacity="0.9"/>
<defs>
<clipPath id="clip0_620_6460">
<rect width="144" height="144" fill="white"/>
</clipPath>
</defs>
</svg>
