<svg width="1256" height="36" viewBox="0 0 1256 36" fill="none" xmlns="http://www.w3.org/2000/svg">
<g clip-path="url(#clip0_839_2275)">
<path d="M24.93 4.48509C24.195 3.75009 23.01 3.75009 22.275 4.48509L9.81003 16.9501C9.22503 17.5351 9.22503 18.4801 9.81003 19.0651L22.275 31.5301C23.01 32.2651 24.195 32.2651 24.93 31.5301C25.665 30.7951 25.665 29.6101 24.93 28.8751L14.07 18.0001L24.945 7.12509C25.665 6.40509 25.665 5.20509 24.93 4.48509Z" fill="#323232"/>
</g>
<g clip-path="url(#clip1_839_2275)">
<path d="M1248.5 9.615L1246.39 7.5L1238 15.885L1229.61 7.5L1227.5 9.615L1235.89 18L1227.5 26.385L1229.61 28.5L1238 20.115L1246.39 28.5L1248.5 26.385L1240.11 18L1248.5 9.615Z" fill="#323232"/>
</g>
<defs>
<clipPath id="clip0_839_2275">
<rect width="36" height="36" fill="white"/>
</clipPath>
<clipPath id="clip1_839_2275">
<rect width="36" height="36" fill="white" transform="translate(1220)"/>
</clipPath>
</defs>
</svg>
