<svg width="36" height="37" viewBox="0 0 36 37" fill="none" xmlns="http://www.w3.org/2000/svg">
<g clip-path="url(#clip0_620_6465)">
<path d="M10.14 7.75995L7.44 5.07495L5.325 7.18995L8.01 9.87495L10.14 7.75995ZM1.5 16.25H6V19.25H1.5V16.25ZM16.5 1.32495H19.5V5.74995H16.5V1.32495ZM28.56 5.06745L30.672 7.17795L27.987 9.86295L25.8765 7.75095L28.56 5.06745ZM25.86 27.74L28.545 30.44L30.66 28.325L27.96 25.64L25.86 27.74ZM30 16.25H34.5V19.25H30V16.25ZM18 8.74995C13.035 8.74995 9 12.785 9 17.75C9 22.715 13.035 26.75 18 26.75C22.965 26.75 27 22.715 27 17.75C27 12.785 22.965 8.74995 18 8.74995ZM18 23.75C14.685 23.75 12 21.065 12 17.75C12 14.435 14.685 11.75 18 11.75C21.315 11.75 24 14.435 24 17.75C24 21.065 21.315 23.75 18 23.75ZM16.5 29.75H19.5V34.175H16.5V29.75ZM5.325 28.31L7.44 30.425L10.125 27.725L8.01 25.61L5.325 28.31Z" fill="#323232"/>
</g>
<defs>
<clipPath id="clip0_620_6465">
<rect width="36" height="36" fill="white" transform="translate(0 0.5)"/>
</clipPath>
</defs>
</svg>
